<svg width="1264" height="749" viewBox="0 0 1264 749" fill="none" xmlns="http://www.w3.org/2000/svg">
<rect opacity="0.7" width="95.9882" height="255.393" rx="47.9941" transform="matrix(0.817321 -0.576182 0.301605 0.953433 313.355 216.098)" fill="#74A662"/>
<rect opacity="0.7" width="121.237" height="393.741" rx="60.6184" transform="matrix(0.757479 0.652859 -0.360712 0.932677 339.952 147.57)" fill="#74A662"/>
<rect opacity="0.7" x="399.809" y="462.375" width="86.761" height="129.519" rx="43.3805" transform="rotate(-17.3696 399.809 462.375)" fill="#74A662"/>
<rect opacity="0.7" width="110.215" height="393.741" rx="55.1077" transform="matrix(0.757479 -0.652859 0.360712 0.932677 106.316 230.32)" fill="#74A662"/>
<rect width="121.237" height="393.741" rx="60.6184" transform="matrix(0.757479 0.652859 -0.360712 0.932677 142.344 147.57)" fill="#74A662"/>
<path d="M599.183 537.149L494.92 223.856C492.57 217.14 493.409 210.928 497.439 205.22C501.468 199.511 507.009 196.657 514.06 196.657H532.193C540.588 196.657 548.311 199.343 555.363 204.716C562.414 209.753 566.947 216.301 568.962 224.36L646.026 494.839C646.026 495.175 646.194 495.343 646.53 495.343C646.866 495.343 647.033 495.175 647.033 494.839L725.105 223.856C727.455 215.797 731.989 209.249 738.704 204.212C745.756 199.175 753.479 196.657 761.874 196.657H777.992C785.043 196.657 790.584 199.511 794.613 205.22C798.643 210.928 799.482 217.14 797.132 223.856L692.869 537.149C690.183 545.208 685.314 551.756 678.262 556.792C671.546 561.829 663.823 564.348 655.092 564.348H636.96C628.565 564.348 620.842 561.829 613.79 556.792C607.074 551.756 602.205 545.208 599.183 537.149ZM860.758 564.348C853.034 564.348 846.319 561.493 840.61 555.785C834.902 550.077 832.048 543.361 832.048 535.638V225.367C832.048 217.644 834.902 210.928 840.61 205.22C846.319 199.511 853.034 196.657 860.758 196.657H880.905C888.628 196.657 895.344 199.511 901.053 205.22C906.761 210.928 909.615 217.644 909.615 225.367V535.638C909.615 543.361 906.761 550.077 901.053 555.785C895.344 561.493 888.628 564.348 880.905 564.348H860.758ZM1100.29 259.114L1055.97 417.271C1055.63 418.279 1055.8 419.286 1056.47 420.293C1057.14 421.301 1057.98 421.805 1058.99 421.805H1142.6C1143.61 421.805 1144.45 421.301 1145.12 420.293C1145.79 419.286 1145.96 418.279 1145.62 417.271L1101.3 259.114C1101.3 258.778 1101.13 258.61 1100.8 258.61C1100.46 258.61 1100.29 258.778 1100.29 259.114ZM969.837 564.348C962.786 564.348 957.245 561.493 953.216 555.785C949.186 550.077 948.347 543.864 950.697 537.149L1054.96 223.856C1057.98 215.797 1062.85 209.249 1069.57 204.212C1076.62 199.175 1084.34 196.657 1092.74 196.657H1110.87C1119.6 196.657 1127.32 199.175 1134.04 204.212C1141.09 209.249 1145.96 215.797 1148.65 223.856L1252.91 537.149C1255.26 543.864 1254.42 550.077 1250.39 555.785C1246.36 561.493 1240.82 564.348 1233.77 564.348H1215.64C1207.58 564.348 1200.02 561.829 1192.97 556.792C1186.25 551.42 1181.72 544.704 1179.37 536.645L1163.25 479.728C1162.92 477.042 1161.07 475.699 1157.71 475.699H1043.88C1040.86 475.699 1039.01 477.042 1038.34 479.728L1022.22 536.645C1020.21 544.704 1015.67 551.42 1008.62 556.792C1001.91 561.829 994.35 564.348 985.955 564.348H969.837Z" fill="#4D6E5D"/>
</svg>
